<svg width="237" height="84" viewBox="0 0 237 84" fill="none" xmlns="http://www.w3.org/2000/svg">
<path d="M41.7435 0.536255C43.9142 2.66724 46.0513 4.83187 48.2051 6.97758C46.0449 9.1338 43.8869 11.2921 41.7268 13.4505C39.5814 11.2837 37.4127 9.13801 35.261 6.97969C37.4254 4.83819 39.5497 2.6441 41.7435 0.536255Z" fill="black"/>
<path d="M33.2504 10.68C35.1853 12.5207 37.0422 14.4644 38.9665 16.3177C38.996 25.1719 38.9687 34.0366 38.9813 42.895C37.076 42.9013 35.1705 42.895 33.2651 42.8971C33.263 34.8318 33.263 26.7686 33.2651 18.7053C31.0292 20.9478 28.7912 23.1882 26.5574 25.4349C25.2141 24.1075 23.8709 22.778 22.5382 21.438C26.0942 17.8618 29.6881 14.2477 33.2504 10.68Z" fill="black"/>
<path d="M50.2894 10.6085C53.8686 14.2162 57.4477 17.826 61.0227 21.4401C59.7047 22.7759 58.3782 24.1054 57.056 25.4391C54.8012 23.1924 52.5484 20.9457 50.2915 18.7032C50.2936 23.0346 50.2957 27.3639 50.2915 31.6953C48.3861 31.6953 46.4828 31.6974 44.5796 31.6953C44.5732 26.8022 44.5859 21.9113 44.5733 17.0203C44.5985 16.7742 44.508 16.3619 44.7248 16.1894C46.4323 14.4707 48.165 12.7373 49.8788 11.0208C50.0157 10.884 50.1525 10.7452 50.2894 10.6085Z" fill="black"/>
<path d="M20.9002 23.0241C22.2518 24.362 23.5825 25.7188 24.9215 27.0673C22.6708 29.3119 20.4097 31.548 18.1653 33.7989C22.4582 33.7989 26.7532 33.7968 31.0461 33.7989C31.0482 35.6922 31.0504 37.5876 31.0461 39.4808C26.0016 39.4829 20.955 39.4703 15.9105 39.4871C13.984 37.6044 12.087 35.6922 10.1753 33.7968C13.7461 30.2038 17.321 26.6108 20.9002 23.0241Z" fill="black"/>
<path d="M62.6585 23.0283C66.2398 26.6108 69.8126 30.208 73.3855 33.7989C71.5138 35.6669 69.6421 37.577 67.7599 39.4282C67.4083 39.5271 66.9956 39.4682 66.6293 39.4808C58.113 39.4766 49.5967 39.4808 41.0825 39.4787C41.0783 37.5854 41.0783 35.6943 41.0825 33.801C49.1861 33.7968 57.2897 33.7989 65.3934 33.7989C63.1469 31.548 60.8879 29.3098 58.633 27.0652C59.972 25.7189 61.3048 24.3599 62.6585 23.0283Z" fill="black"/>
<path d="M77.1141 35.7532C79.2764 37.9115 81.4387 40.0783 83.5714 42.266C81.4387 44.4391 79.2659 46.5764 77.1163 48.7326C74.9582 46.5785 72.8002 44.4244 70.6443 42.266C72.8023 40.0993 74.9561 37.9199 77.1141 35.7532Z" fill="black"/>
<path d="M6.45722 35.7469C8.61314 37.901 10.7712 40.0551 12.925 42.2113C10.7691 44.3718 8.60681 46.528 6.44879 48.6863C4.29918 46.5301 2.14329 44.3823 0 42.2219C1.97696 40.1898 4.01078 38.206 6.00879 36.1928C6.15828 36.0456 6.30774 35.8962 6.45722 35.7469Z" fill="black"/>
<path d="M44.59 41.6981C46.487 41.6707 48.3924 41.6959 50.2915 41.6875C50.2957 49.7465 50.2936 57.8056 50.2915 65.8646C52.5611 63.62 54.8012 61.3502 57.0582 59.0951C58.3783 60.4435 59.7047 61.7898 61.0227 63.1446C57.4498 66.725 53.8664 70.2906 50.2957 73.871C48.4387 72.0261 46.586 70.1833 44.729 68.3406C44.508 68.1702 44.5985 67.7579 44.5733 67.5117C44.5922 58.9289 44.5585 50.2767 44.59 41.6981Z" fill="black"/>
<path d="M15.7736 45.1249C24.5552 45.0765 33.5999 45.1207 42.4131 45.1038C42.4194 46.9992 42.4194 48.8925 42.4131 50.7879C34.3326 50.7836 26.25 50.7879 18.1695 50.7857C20.4097 53.0451 22.694 55.2623 24.9194 57.5342C23.5699 58.8679 22.2414 60.2248 20.8981 61.5648C17.3253 57.976 13.7609 54.3788 10.1775 50.8026C12.0176 48.9051 13.8977 46.9887 15.7736 45.1249Z" fill="black"/>
<path d="M52.3969 45.1038C57.5172 45.0975 62.6375 45.1228 67.7578 45.0912C69.6632 46.9803 71.558 48.8841 73.4382 50.7984C69.84 54.3809 66.2525 57.9781 62.6586 61.5648C61.3133 60.2248 59.9869 58.8658 58.6373 57.5321C60.8669 55.2623 63.1471 53.0408 65.3914 50.7857C61.0585 50.7878 56.7277 50.7857 52.3948 50.7857C52.3948 48.8925 52.3885 46.9971 52.3969 45.1038Z" fill="black"/>
<path d="M33.2673 52.9441C35.1706 52.942 37.0759 52.9378 38.9792 52.9441C38.9708 58.0349 38.996 63.1257 38.9665 68.2143C37.0633 70.0571 35.2084 71.9777 33.2988 73.8121C33.1915 73.7974 33.082 73.7217 32.9704 73.5849C29.4965 70.1013 26.0121 66.624 22.5361 63.1446C23.8709 61.7898 25.2162 60.4435 26.5574 59.093C28.7912 61.3565 31.0271 63.6158 33.2651 65.8751C33.2651 61.5648 33.261 57.2544 33.2673 52.9441Z" fill="black"/>
<path d="M41.7794 71.0522C43.9522 73.2 46.0933 75.3835 48.2429 77.5566C46.087 79.7044 43.948 81.8669 41.7794 84C39.6088 81.8669 37.4676 79.7002 35.3096 77.5503C37.4676 75.3877 39.6046 73.1979 41.7794 71.0522Z" fill="black"/>
<path d="M106.23 39.058H100.392V16.4114H92.915V11.5586H113.707V16.4114H106.23V39.058Z" fill="black"/>
<path d="M128.398 23.6154H139.321V37.873C137.551 38.4498 135.881 38.8511 134.312 39.0768C132.755 39.315 131.16 39.4342 129.528 39.4342C125.372 39.4342 122.195 38.2178 119.998 35.7851C117.813 33.3399 116.721 29.8351 116.721 25.2707C116.721 20.8316 117.989 17.3707 120.525 14.8878C123.074 12.405 126.602 11.1636 131.11 11.1636C133.935 11.1636 136.659 11.7278 139.284 12.8564L137.344 17.5212C135.335 16.518 133.244 16.0164 131.072 16.0164C128.548 16.0164 126.527 16.8628 125.008 18.5557C123.488 20.2485 122.729 22.5245 122.729 25.3835C122.729 28.3679 123.338 30.6502 124.556 32.2302C125.786 33.7976 127.569 34.5813 129.904 34.5813C131.122 34.5813 132.359 34.4559 133.615 34.2051V28.4683H128.398V23.6154Z" fill="black"/>
<path d="M178.759 25.0449C178.759 29.5718 177.466 33.039 174.879 35.4466C172.305 37.8542 168.583 39.058 163.711 39.058H155.914V11.5586H164.558C169.053 11.5586 172.544 12.7436 175.03 15.1136C177.516 17.4835 178.759 20.794 178.759 25.0449ZM172.695 25.1954C172.695 19.2892 170.083 16.3362 164.86 16.3362H161.752V34.2428H164.257C169.882 34.2428 172.695 31.227 172.695 25.1954Z" fill="black"/>
<path d="M201.322 39.058L199.325 32.5123H189.287L187.291 39.058H181L190.718 11.4457H197.856L207.612 39.058H201.322ZM197.932 27.6218C196.086 21.6906 195.044 18.3362 194.805 17.5588C194.579 16.7813 194.416 16.1669 194.316 15.7155C193.901 17.3205 192.715 21.2893 190.756 27.6218H197.932Z" fill="black"/>
<path d="M236.089 25.2707C236.089 29.8225 234.959 33.3211 232.699 35.7663C230.439 38.2116 227.199 39.4342 222.981 39.4342C218.762 39.4342 215.522 38.2116 213.262 35.7663C211.002 33.3211 209.872 29.81 209.872 25.233C209.872 20.6561 211.002 17.1638 213.262 14.7562C215.535 12.336 218.787 11.1259 223.018 11.1259C227.25 11.1259 230.483 12.3423 232.718 14.775C234.965 17.2077 236.089 20.7062 236.089 25.2707ZM215.993 25.2707C215.993 28.3429 216.577 30.6564 217.745 32.2113C218.913 33.7663 220.658 34.5437 222.981 34.5437C227.639 34.5437 229.968 31.4527 229.968 25.2707C229.968 19.0761 227.651 15.9788 223.018 15.9788C220.695 15.9788 218.944 16.7625 217.764 18.33C216.583 19.8849 215.993 22.1984 215.993 25.2707Z" fill="black"/>
<path d="M94.6665 73.2995V54.9666H96.801V71.3684H104.899V73.2995H94.6665Z" fill="black"/>
<path d="M116.175 73.2995L115.76 71.3433H115.66C114.973 72.2044 114.287 72.7896 113.601 73.0989C112.923 73.3998 112.073 73.5503 111.052 73.5503C109.687 73.5503 108.616 73.1992 107.838 72.497C107.067 71.7948 106.682 70.7958 106.682 69.5C106.682 66.7246 108.905 65.27 113.35 65.1362L115.685 65.061V64.2083C115.685 63.1299 115.451 62.3357 114.982 61.8258C114.521 61.3075 113.781 61.0483 112.759 61.0483C111.613 61.0483 110.315 61.3994 108.867 62.1016L108.227 60.5091C108.905 60.1413 109.646 59.8529 110.449 59.6439C111.261 59.4349 112.073 59.3304 112.885 59.3304C114.526 59.3304 115.739 59.694 116.526 60.4213C117.321 61.1486 117.719 62.3148 117.719 63.9199V73.2995H116.175ZM111.466 71.8324C112.764 71.8324 113.781 71.4771 114.517 70.7665C115.262 70.0559 115.635 69.0611 115.635 67.7821V66.5407L113.55 66.6284C111.893 66.687 110.696 66.9461 109.959 67.4059C109.231 67.8573 108.867 68.5637 108.867 69.5251C108.867 70.2775 109.093 70.8501 109.545 71.243C110.006 71.6359 110.646 71.8324 111.466 71.8324Z" fill="black"/>
<path d="M123.984 59.5561V68.4718C123.984 69.592 124.24 70.428 124.75 70.9797C125.261 71.5314 126.06 71.8073 127.148 71.8073C128.588 71.8073 129.639 71.4144 130.3 70.6286C130.97 69.8428 131.304 68.5596 131.304 66.7789V59.5561H133.389V73.2995H131.668L131.367 71.4562H131.254C130.827 72.1333 130.233 72.6516 129.471 73.0111C128.718 73.3706 127.856 73.5503 126.885 73.5503C125.211 73.5503 123.955 73.1532 123.118 72.3591C122.289 71.5649 121.875 70.2942 121.875 68.547V59.5561H123.984Z" fill="black"/>
<path d="M147.238 73.2995V64.4089C147.238 63.2887 146.982 62.4528 146.472 61.901C145.961 61.3493 145.162 61.0734 144.074 61.0734C142.634 61.0734 141.579 61.4621 140.91 62.2396C140.24 63.017 139.905 64.3003 139.905 66.0892V73.2995H137.821V59.5561H139.516L139.855 61.437H139.955C140.382 60.7599 140.981 60.2374 141.751 59.8696C142.521 59.4934 143.379 59.3053 144.325 59.3053C145.982 59.3053 147.229 59.7066 148.066 60.5091C148.903 61.3033 149.322 62.5781 149.322 64.3337V73.2995H147.238Z" fill="black"/>
<path d="M159.115 73.5503C157.123 73.5503 155.579 72.9401 154.482 71.7195C153.394 70.4907 152.85 68.756 152.85 66.5156C152.85 64.2167 153.403 62.4402 154.507 61.1863C155.621 59.9323 157.203 59.3053 159.254 59.3053C159.915 59.3053 160.576 59.3764 161.237 59.5185C161.899 59.6606 162.418 59.8278 162.794 60.0201L162.154 61.7882C161.694 61.6042 161.191 61.4538 160.647 61.3367C160.103 61.2113 159.622 61.1486 159.203 61.1486C156.408 61.1486 155.01 62.9293 155.01 66.4905C155.01 68.1792 155.349 69.4749 156.027 70.3778C156.713 71.2806 157.726 71.7321 159.065 71.7321C160.212 71.7321 161.388 71.4855 162.593 70.9922V72.8356C161.673 73.3121 160.513 73.5503 159.115 73.5503Z" fill="black"/>
<path d="M175.287 73.2995V64.4089C175.287 63.2887 175.032 62.4528 174.521 61.901C174.011 61.3493 173.211 61.0734 172.123 61.0734C170.675 61.0734 169.616 61.4663 168.947 62.2521C168.285 63.0379 167.955 64.3253 167.955 66.1143V73.2995H165.87V53.7879H167.955V59.694C167.955 60.4046 167.921 60.994 167.854 61.4621H167.98C168.39 60.8017 168.972 60.2834 169.725 59.9072C170.487 59.5227 171.353 59.3304 172.324 59.3304C174.007 59.3304 175.266 59.7317 176.103 60.5342C176.949 61.3284 177.372 62.5949 177.372 64.3337V73.2995H175.287Z" fill="black"/>
<path d="M188.069 73.5503C187.173 73.5503 186.353 73.3873 185.608 73.0613C184.872 72.7269 184.252 72.2169 183.75 71.5314H183.599C183.7 72.334 183.75 73.0947 183.75 73.8137V79.469H181.666V59.5561H183.361L183.65 61.437H183.75C184.286 60.6847 184.909 60.1413 185.621 59.8069C186.332 59.4725 187.148 59.3053 188.069 59.3053C189.894 59.3053 191.3 59.9281 192.288 61.1737C193.284 62.4193 193.782 64.1665 193.782 66.4153C193.782 68.6724 193.276 70.428 192.263 71.6819C191.258 72.9275 189.86 73.5503 188.069 73.5503ZM187.768 61.0734C186.362 61.0734 185.345 61.4621 184.717 62.2396C184.089 63.017 183.767 64.2543 183.75 65.9513V66.4153C183.75 68.3464 184.072 69.7299 184.717 70.5659C185.361 71.3935 186.395 71.8073 187.818 71.8073C189.007 71.8073 189.936 71.3266 190.605 70.3653C191.283 69.4039 191.622 68.0789 191.622 66.3902C191.622 64.6764 191.283 63.364 190.605 62.4528C189.936 61.5332 188.99 61.0734 187.768 61.0734Z" fill="black"/>
<path d="M205.898 73.2995L205.484 71.3433H205.384C204.697 72.2044 204.011 72.7896 203.324 73.0989C202.646 73.3998 201.797 73.5503 200.776 73.5503C199.411 73.5503 198.34 73.1992 197.561 72.497C196.791 71.7948 196.406 70.7958 196.406 69.5C196.406 66.7246 198.629 65.27 203.073 65.1362L205.409 65.061V64.2083C205.409 63.1299 205.174 62.3357 204.706 61.8258C204.245 61.3075 203.504 61.0483 202.483 61.0483C201.336 61.0483 200.039 61.3994 198.591 62.1016L197.951 60.5091C198.629 60.1413 199.369 59.8529 200.173 59.6439C200.985 59.4349 201.797 59.3304 202.609 59.3304C204.249 59.3304 205.463 59.694 206.25 60.4213C207.045 61.1486 207.443 62.3148 207.443 63.9199V73.2995H205.898ZM201.19 71.8324C202.487 71.8324 203.504 71.4771 204.241 70.7665C204.986 70.0559 205.358 69.0611 205.358 67.7821V66.5407L203.274 66.6284C201.617 66.687 200.42 66.9461 199.683 67.4059C198.955 67.8573 198.591 68.5637 198.591 69.5251C198.591 70.2775 198.817 70.8501 199.269 71.243C199.729 71.6359 200.37 71.8324 201.19 71.8324Z" fill="black"/>
<path d="M221.116 71.4562H221.003C220.04 72.8523 218.601 73.5503 216.684 73.5503C214.884 73.5503 213.482 72.9359 212.478 71.707C211.482 70.4781 210.983 68.7309 210.983 66.4654C210.983 64.1999 211.486 62.4402 212.49 61.1863C213.495 59.9323 214.893 59.3053 216.684 59.3053C218.55 59.3053 219.982 59.9824 220.978 61.3367H221.141L221.053 60.3461L221.003 59.3805V53.7879H223.087V73.2995H221.392L221.116 71.4562ZM216.947 71.8073C218.37 71.8073 219.4 71.4228 220.036 70.6537C220.681 69.8762 221.003 68.6264 221.003 66.9043V66.4654C221.003 64.5176 220.677 63.1299 220.024 62.3023C219.379 61.4663 218.345 61.0483 216.922 61.0483C215.7 61.0483 214.763 61.5248 214.11 62.4778C213.465 63.4225 213.143 64.76 213.143 66.4905C213.143 68.2461 213.465 69.5711 214.11 70.4656C214.754 71.3601 215.7 71.8073 216.947 71.8073Z" fill="black"/>
</svg>
